<svg xmlns="http://www.w3.org/2000/svg" viewBox="0 0 21.8 19.84"><defs><style>.cls-1{fill:#1eb7e0;}</style></defs><g id="Layer_2" data-name="Layer 2"><g id="Layer_1-2" data-name="Layer 1"><path class="cls-1" d="M0,0H21.8V4.42H0Z"/><path class="cls-1" d="M10.9,13.36a1.2,1.2,0,1,0-1.23-1.19,1.21,1.21,0,0,0,1.23,1.19Z"/><path class="cls-1" d="M10.9,15.86a3.7,3.7,0,1,0-3.8-3.69,3.75,3.75,0,0,0,3.8,3.69Zm0-6.14a2.45,2.45,0,1,1-2.52,2.45A2.49,2.49,0,0,1,10.9,9.72Z"/><path class="cls-1" d="M1.71,5.67V10.9A8.78,8.78,0,0,0,4.4,17.22a9.36,9.36,0,0,0,13,0,8.74,8.74,0,0,0,2.69-6.32V5.67ZM10.9,7.23A5,5,0,0,1,16,12.17,5,5,0,0,1,10.9,17.1a5,5,0,0,1-5.08-4.93A5,5,0,0,1,10.9,7.23Zm-5.62.11A.64.64,0,0,1,5.92,8a.63.63,0,0,1-.64.62A.64.64,0,0,1,4.64,8,.65.65,0,0,1,5.28,7.34Z"/></g></g></svg>