<svg xmlns="http://www.w3.org/2000/svg" xmlns:xlink="http://www.w3.org/1999/xlink" viewBox="0 0 35.33 25.33"><defs><style>.cls-1,.cls-2,.cls-3,.cls-4,.cls-5,.cls-6,.cls-7{stroke:#1fb9dd;stroke-miterlimit:10;}.cls-1{fill:url(#linear-gradient);}.cls-2{fill:url(#linear-gradient-2);}.cls-3{fill:url(#linear-gradient-3);}.cls-4{fill:url(#linear-gradient-4);}.cls-5{fill:url(#linear-gradient-5);}.cls-6{fill:url(#linear-gradient-6);}.cls-7{fill:url(#linear-gradient-7);}</style><linearGradient id="linear-gradient" x1="7.93" y1="27.74" x2="27.73" y2="-2.74" gradientUnits="userSpaceOnUse"><stop offset="0" stop-color="#ddd"/><stop offset="1" stop-color="#fff"/></linearGradient><linearGradient id="linear-gradient-2" x1="128.62" y1="-58.09" x2="147.23" y2="-86.74" gradientTransform="translate(-121.14 91.31)" xlink:href="#linear-gradient"/><linearGradient id="linear-gradient-3" x1="134.47" y1="-77.78" x2="142.35" y2="-89.91" gradientTransform="translate(-109.39 103.05)" xlink:href="#linear-gradient"/><linearGradient id="linear-gradient-4" x1="133.66" y1="-54.82" x2="142.82" y2="-68.91" gradientTransform="translate(-132.17 80.27)" xlink:href="#linear-gradient"/><linearGradient id="linear-gradient-5" x1="-73.23" y1="-58.09" x2="-54.63" y2="-86.73" gradientTransform="matrix(0.98, 0, 0, -1, 79.57, -65.97)" xlink:href="#linear-gradient"/><linearGradient id="linear-gradient-6" x1="-67.38" y1="-77.78" x2="-59.51" y2="-89.9" gradientTransform="matrix(0.98, 0, 0, -1, 91.31, -77.72)" xlink:href="#linear-gradient"/><linearGradient id="linear-gradient-7" x1="-68.19" y1="-54.82" x2="-59.03" y2="-68.91" gradientTransform="matrix(0.98, 0, 0, -1, 68.53, -54.94)" xlink:href="#linear-gradient"/></defs><g id="Layer_2" data-name="Layer 2"><g id="Layer_1-2" data-name="Layer 1"><rect class="cls-1" x="0.83" y="0.5" width="34" height="24" rx="3"/><path class="cls-2" d="M11.47,1.64h9.22a3,3,0,0,1,3,3V32.81a3,3,0,0,1-3,3H11.47a0,0,0,0,1,0,0V1.64A0,0,0,0,1,11.47,1.64Z" transform="translate(36.31 1.14) rotate(90)"/><path class="cls-3" d="M23.22,13.38h9.22a3,3,0,0,1,3,3v7.68a0,0,0,0,1,0,0H23.22a0,0,0,0,1,0,0V13.38A0,0,0,0,1,23.22,13.38Z" transform="translate(48.05 -10.61) rotate(90)"/><path class="cls-4" d="M.44,12.67H12.66a0,0,0,0,1,0,0v9.1a3,3,0,0,1-3,3H.44a0,0,0,0,1,0,0V12.67A0,0,0,0,1,.44,12.67Z" transform="translate(25.27 12.17) rotate(90)"/><path class="cls-5" d="M11.58-10.47h9a3,3,0,0,1,3,3V20.7a3,3,0,0,1-3,3h-9a0,0,0,0,1,0,0V-10.47A0,0,0,0,1,11.58-10.47Z" transform="translate(10.97 24.2) rotate(-90)"/><path class="cls-6" d="M23.33,1.27h12a0,0,0,0,1,0,0V9a3,3,0,0,1-3,3h-9a0,0,0,0,1,0,0V1.27A0,0,0,0,1,23.33,1.27Z" transform="translate(22.72 35.94) rotate(-90)"/><path class="cls-7" d="M.55.56h9a3,3,0,0,1,3,3v9.1a0,0,0,0,1,0,0H.55a0,0,0,0,1,0,0V.56A0,0,0,0,1,.55.56Z" transform="translate(-0.06 13.16) rotate(-90)"/></g></g></svg>