<svg xmlns="http://www.w3.org/2000/svg" xmlns:xlink="http://www.w3.org/1999/xlink" viewBox="0 0 55 43"><defs><style>.cls-1{fill:#1eb7e0;}.cls-10,.cls-11,.cls-2,.cls-3,.cls-4,.cls-5,.cls-6,.cls-7,.cls-8,.cls-9{stroke:#1fb9dd;stroke-miterlimit:10;}.cls-2{fill:url(#linear-gradient);}.cls-3{fill:url(#linear-gradient-2);}.cls-4{fill:url(#linear-gradient-3);}.cls-5{fill:url(#linear-gradient-4);}.cls-6{fill:url(#linear-gradient-5);}.cls-7{fill:url(#linear-gradient-6);}.cls-8{fill:url(#linear-gradient-7);}.cls-9{fill:url(#linear-gradient-8);}.cls-10{fill:url(#linear-gradient-9);}.cls-11{fill:url(#linear-gradient-10);}</style><linearGradient id="linear-gradient" x1="18.27" y1="32.46" x2="38.06" y2="1.98" gradientUnits="userSpaceOnUse"><stop offset="0" stop-color="#ddd"/><stop offset="1" stop-color="#fff"/></linearGradient><linearGradient id="linear-gradient-2" x1="31.96" y1="27.9" x2="45.61" y2="6.88" xlink:href="#linear-gradient"/><linearGradient id="linear-gradient-3" x1="36.21" y1="14.16" x2="42.32" y2="4.75" xlink:href="#linear-gradient"/><linearGradient id="linear-gradient-4" x1="35.5" y1="30.2" x2="42.7" y2="19.12" xlink:href="#linear-gradient"/><linearGradient id="linear-gradient-5" x1="20.96" y1="27.9" x2="34.61" y2="6.88" xlink:href="#linear-gradient"/><linearGradient id="linear-gradient-6" x1="25.21" y1="14.16" x2="31.95" y2="3.78" xlink:href="#linear-gradient"/><linearGradient id="linear-gradient-7" x1="24.99" y1="30.51" x2="32.18" y2="19.43" xlink:href="#linear-gradient"/><linearGradient id="linear-gradient-8" x1="10.59" y1="27.31" x2="23.73" y2="7.07" xlink:href="#linear-gradient"/><linearGradient id="linear-gradient-9" x1="14.11" y1="14.74" x2="21.1" y2="3.99" xlink:href="#linear-gradient"/><linearGradient id="linear-gradient-10" x1="13.96" y1="29.65" x2="20.72" y2="19.24" xlink:href="#linear-gradient"/></defs><g id="Layer_2" data-name="Layer 2"><g id="Layer_1-2" data-name="Layer 1"><rect class="cls-1" width="55" height="43"/><rect class="cls-2" x="11.16" y="5.22" width="34" height="24" rx="3"/><path class="cls-3" d="M34,5.22h8.16a3,3,0,0,1,3,3v18a3,3,0,0,1-3,3H34a0,0,0,0,1,0,0v-24A0,0,0,0,1,34,5.22Z"/><path class="cls-4" d="M34,5.22h8.16a3,3,0,0,1,3,3v4.5a0,0,0,0,1,0,0H34a0,0,0,0,1,0,0V5.22A0,0,0,0,1,34,5.22Z"/><path class="cls-5" d="M34,20.72H45.16a0,0,0,0,1,0,0v5.5a3,3,0,0,1-3,3H34a0,0,0,0,1,0,0v-8.5A0,0,0,0,1,34,20.72Z"/><path class="cls-6" d="M23,5.22h8.16a3,3,0,0,1,3,3v18a3,3,0,0,1-3,3H23a0,0,0,0,1,0,0v-24A0,0,0,0,1,23,5.22Z"/><rect class="cls-7" x="23" y="5.22" width="11.16" height="7.5"/><rect class="cls-8" x="23" y="20.72" width="11.16" height="8.5"/><path class="cls-9" d="M14.6,5.22H20a3,3,0,0,1,3,3v18a3,3,0,0,1-3,3H14.6a3.6,3.6,0,0,1-3.6-3.6V8.83A3.6,3.6,0,0,1,14.6,5.22Z"/><path class="cls-10" d="M14.76,5.22H23a0,0,0,0,1,0,0v7.5a0,0,0,0,1,0,0H11a0,0,0,0,1,0,0V9A3.76,3.76,0,0,1,14.76,5.22Z"/><path class="cls-11" d="M11,20.72H23a0,0,0,0,1,0,0v8.5a0,0,0,0,1,0,0H14.26A3.26,3.26,0,0,1,11,26V20.72A0,0,0,0,1,11,20.72Z"/></g></g></svg>