<svg xmlns="http://www.w3.org/2000/svg" xmlns:xlink="http://www.w3.org/1999/xlink" viewBox="0 0 37 36.17"><defs><style>.cls-1{stroke:#1fb9dd;stroke-miterlimit:10;fill:url(#linear-gradient);}.cls-2{fill:#999;}.cls-3{fill:#aac1ce;}.cls-4{fill:#25b6d2;}</style><linearGradient id="linear-gradient" x1="0.58" y1="18.09" x2="36.42" y2="18.09" gradientUnits="userSpaceOnUse"><stop offset="0" stop-color="#ddd"/><stop offset="1" stop-color="#fff"/></linearGradient></defs><g id="Layer_2" data-name="Layer 2"><g id="Layer_1-2" data-name="Layer 1"><rect class="cls-1" x="0.58" y="0.57" width="35.84" height="35.04"/><path class="cls-2" d="M35.84,1.13V35H1.16V1.13H35.84M37,0H0V36.17H37V0Z"/><path class="cls-3" d="M33.82,33.07H3.18V3.1H33.82ZM3.75,32.5h29.5V3.67H3.75Z"/><polygon class="cls-3" points="29.58 8.06 8.24 28.91 7.42 28.11 28.76 7.26 29.58 8.06"/><polygon class="cls-4" points="29.65 13.71 28.5 13.7 28.58 8.23 22.99 8.31 22.97 7.18 29.76 7.08 29.65 13.71"/><polygon class="cls-4" points="7.24 29.09 7.35 22.46 8.51 22.48 8.42 27.94 14.01 27.86 14.03 28.99 7.24 29.09"/><polygon class="cls-3" points="29.57 28.11 28.76 28.91 7.42 8.06 8.24 7.26 29.57 28.11"/><polygon class="cls-4" points="7.35 13.71 7.25 7.08 14.03 7.18 14.01 8.31 8.42 8.23 8.51 13.7 7.35 13.71"/><polygon class="cls-4" points="29.76 29.09 22.97 28.99 22.99 27.86 28.58 27.94 28.5 22.48 29.65 22.46 29.76 29.09"/></g></g></svg>