<svg xmlns="http://www.w3.org/2000/svg" xmlns:xlink="http://www.w3.org/1999/xlink" viewBox="0 0 35.16 25"><defs><style>.cls-1,.cls-2,.cls-3,.cls-4,.cls-5{stroke:#1fb9dd;stroke-miterlimit:10;}.cls-1{fill:url(#linear-gradient);}.cls-2{fill:url(#linear-gradient-2);}.cls-3{fill:url(#linear-gradient-3);}.cls-4{fill:url(#linear-gradient-4);}.cls-5{fill:url(#linear-gradient-5);}</style><linearGradient id="linear-gradient" x1="7.77" y1="27.74" x2="27.56" y2="-2.74" gradientUnits="userSpaceOnUse"><stop offset="0" stop-color="#ddd"/><stop offset="1" stop-color="#fff"/></linearGradient><linearGradient id="linear-gradient-2" x1="2.39" y1="24.25" x2="17.87" y2="0.41" xlink:href="#linear-gradient"/><linearGradient id="linear-gradient-3" x1="130.64" y1="-59.15" x2="147.99" y2="-85.85" gradientTransform="translate(-122.61 92.95)" xlink:href="#linear-gradient"/><linearGradient id="linear-gradient-4" x1="136.46" y1="-78.74" x2="143.13" y2="-89.01" gradientTransform="translate(-110.92 104.64)" xlink:href="#linear-gradient"/><linearGradient id="linear-gradient-5" x1="135.66" y1="-55.89" x2="143.6" y2="-68.11" gradientTransform="translate(-133.59 81.97)" xlink:href="#linear-gradient"/></defs><g id="Layer_2" data-name="Layer 2"><g id="Layer_1-2" data-name="Layer 1"><rect class="cls-1" x="0.66" y="0.5" width="34" height="24" rx="3"/><path class="cls-2" d="M3.66.5H18a0,0,0,0,1,0,0v24a0,0,0,0,1,0,0H3.66a3,3,0,0,1-3-3V3.5A3,3,0,0,1,3.66.5Z"/><path class="cls-3" d="M13.39,3.28h5.22a3,3,0,0,1,3,3v28a3,3,0,0,1-3,3H13.39a0,0,0,0,1,0,0v-34a0,0,0,0,1,0,0Z" transform="translate(37.78 2.78) rotate(90)"/><path class="cls-4" d="M25.08,15H30.3a3,3,0,0,1,3,3v7.63a0,0,0,0,1,0,0H25.08a0,0,0,0,1,0,0V15A0,0,0,0,1,25.08,15Z" transform="translate(49.47 -8.91) rotate(90)"/><path class="cls-5" d="M2.41,14.26h8.22a0,0,0,0,1,0,0v9a3,3,0,0,1-3,3H2.41a0,0,0,0,1,0,0v-12A0,0,0,0,1,2.41,14.26Z" transform="translate(26.8 13.76) rotate(90)"/></g></g></svg>