<svg xmlns="http://www.w3.org/2000/svg" xmlns:xlink="http://www.w3.org/1999/xlink" viewBox="0 0 34.3 36.53"><defs><style>.cls-1{isolation:isolate;}.cls-2{mix-blend-mode:multiply;}.cls-3{fill:#fff;opacity:0;}.cls-4{fill:#fefefe;opacity:0;}.cls-5{fill:#fdfdfd;opacity:0.01;}.cls-6{fill:#fcfcfd;opacity:0.01;}.cls-7{fill:#fbfbfc;opacity:0.01;}.cls-8{fill:#fafafb;opacity:0.02;}.cls-9{fill:#f9fafa;opacity:0.02;}.cls-10{fill:#f8f9f9;opacity:0.02;}.cls-11{fill:#f7f8f9;opacity:0.03;}.cls-12{fill:#f6f7f8;opacity:0.03;}.cls-13{fill:#f5f6f7;opacity:0.03;}.cls-14{fill:#f4f5f6;opacity:0.04;}.cls-15{fill:#f3f4f5;opacity:0.04;}.cls-16{fill:#f2f3f5;opacity:0.04;}.cls-17{fill:#f1f2f4;opacity:0.05;}.cls-18{fill:#f0f1f3;opacity:0.05;}.cls-19{fill:#eff1f2;opacity:0.05;}.cls-20{fill:#eef0f1;opacity:0.06;}.cls-21{fill:#edeff0;opacity:0.06;}.cls-22{fill:#eceef0;opacity:0.06;}.cls-23{fill:#ebedef;opacity:0.07;}.cls-24{fill:#eaecee;opacity:0.07;}.cls-25{fill:#e9ebed;opacity:0.07;}.cls-26{fill:#e8eaec;opacity:0.08;}.cls-27{fill:#e7e9ec;opacity:0.08;}.cls-28{fill:#e6e8eb;opacity:0.08;}.cls-29{fill:#e5e8ea;opacity:0.09;}.cls-30{fill:#e4e7e9;opacity:0.09;}.cls-31{fill:#e3e6e8;opacity:0.1;}.cls-32{fill:#e2e5e8;opacity:0.1;}.cls-33{fill:#e1e4e7;opacity:0.1;}.cls-34{fill:#e0e3e6;opacity:0.11;}.cls-35{fill:#dfe2e5;opacity:0.11;}.cls-36{fill:#dee1e4;opacity:0.11;}.cls-37{fill:#dde0e4;opacity:0.12;}.cls-38{fill:#dcdfe3;opacity:0.12;}.cls-39{fill:#dbdee2;opacity:0.12;}.cls-40{fill:#dadee1;opacity:0.13;}.cls-41{fill:#d9dde0;opacity:0.13;}.cls-42{fill:#d8dce0;opacity:0.13;}.cls-43{fill:#d7dbdf;opacity:0.14;}.cls-44{fill:#d6dade;opacity:0.14;}.cls-45{fill:#d5d9dd;opacity:0.14;}.cls-46{fill:#d4d8dc;opacity:0.15;}.cls-47{fill:#d3d7dc;opacity:0.15;}.cls-48{fill:#d2d6db;opacity:0.15;}.cls-49{fill:#d1d5da;opacity:0.16;}.cls-50{fill:#d0d5d9;opacity:0.16;}.cls-51{fill:#cfd4d8;opacity:0.16;}.cls-52{fill:#ced3d8;opacity:0.17;}.cls-53{fill:#cdd2d7;opacity:0.17;}.cls-54{fill:#ccd1d6;opacity:0.17;}.cls-55{fill:#cbd0d5;opacity:0.18;}.cls-56{fill:#cacfd4;opacity:0.18;}.cls-57{fill:#c9ced3;opacity:0.18;}.cls-58{fill:#c8cdd3;opacity:0.19;}.cls-59{fill:#c7ccd2;opacity:0.19;}.cls-60{fill:#c6ccd1;opacity:0.19;}.cls-61{fill:#c5cbd0;opacity:0.2;}.cls-62{fill:#c4cacf;opacity:0.2;}.cls-63{fill:#c3c9cf;opacity:0.2;}.cls-64{fill:#c2c8ce;opacity:0.21;}.cls-65{fill:#c1c7cd;opacity:0.21;}.cls-66{fill:#c0c6cc;opacity:0.21;}.cls-67{fill:#bfc5cb;opacity:0.22;}.cls-68{fill:#bec4cb;opacity:0.22;}.cls-69{fill:#bdc3ca;opacity:0.22;}.cls-70{fill:#bcc3c9;opacity:0.23;}.cls-71{fill:#bbc2c8;opacity:0.23;}.cls-72{fill:#bac1c7;opacity:0.23;}.cls-73{fill:#b9c0c7;opacity:0.24;}.cls-74{fill:#b8bfc6;opacity:0.24;}.cls-75{fill:#b7bec5;opacity:0.24;}.cls-76{fill:#b6bdc4;opacity:0.25;}.cls-77{fill:#b5bcc3;opacity:0.25;}.cls-78{fill:#b4bbc3;opacity:0.25;}.cls-79{fill:#b3bac2;opacity:0.26;}.cls-80{fill:#b2b9c1;opacity:0.26;}.cls-81{fill:#b1b9c0;opacity:0.27;}.cls-82{fill:#b0b8bf;opacity:0.27;}.cls-83{fill:#afb7bf;opacity:0.27;}.cls-84{fill:#aeb6be;opacity:0.28;}.cls-85{fill:#adb5bd;opacity:0.28;}.cls-86{fill:#acb4bc;opacity:0.28;}.cls-87{fill:#abb3bb;opacity:0.29;}.cls-88{fill:#aab2bb;opacity:0.29;}.cls-89{fill:#a9b1ba;opacity:0.29;}.cls-90{fill:#a8b0b9;opacity:0.3;}.cls-91{fill:#a7b0b8;opacity:0.3;}.cls-92{fill:#a6afb7;opacity:0.3;}.cls-93{fill:#a5aeb6;opacity:0.31;}.cls-94{fill:#a4adb6;opacity:0.31;}.cls-95{fill:#a3acb5;opacity:0.31;}.cls-96{fill:#a2abb4;opacity:0.32;}.cls-97{fill:#a1aab3;opacity:0.32;}.cls-98{fill:#a0a9b2;opacity:0.32;}.cls-99{fill:#9fa8b2;opacity:0.33;}.cls-100{fill:#9ea7b1;opacity:0.33;}.cls-101{fill:#9da7b0;opacity:0.33;}.cls-102{fill:#9ca6af;opacity:0.34;}.cls-103{fill:#9ba5ae;opacity:0.34;}.cls-104{fill:#9aa4ae;opacity:0.34;}.cls-105{fill:#99a3ad;opacity:0.35;}.cls-106{fill:#98a2ac;opacity:0.35;}.cls-107{fill:#97a1ab;opacity:0.35;}.cls-108{fill:#96a0aa;opacity:0.36;}.cls-109{fill:#959faa;opacity:0.36;}.cls-110{fill:#949ea9;opacity:0.36;}.cls-111{fill:#939da8;opacity:0.37;}.cls-112{fill:#929da7;opacity:0.37;}.cls-113{fill:#919ca6;opacity:0.37;}.cls-114{fill:#909ba6;opacity:0.38;}.cls-115{fill:#8f9aa5;opacity:0.38;}.cls-116{fill:#8e99a4;opacity:0.38;}.cls-117{fill:#8d98a3;opacity:0.39;}.cls-118{fill:#8c97a2;opacity:0.39;}.cls-119{fill:#8b96a2;opacity:0.39;}.cls-120{fill:#8a95a1;opacity:0.4;}.cls-121{fill:#8994a0;opacity:0.4;}.cls-122{fill:#88949f;opacity:0.4;}.cls-123{fill:#87939e;opacity:0.41;}.cls-124{fill:#86929d;opacity:0.41;}.cls-125{fill:#85919d;opacity:0.41;}.cls-126{fill:#84909c;opacity:0.42;}.cls-127{fill:#838f9b;opacity:0.42;}.cls-128{fill:#828e9a;opacity:0.42;}.cls-129{fill:#818d99;opacity:0.43;}.cls-130{fill:#808c99;opacity:0.43;}.cls-131{fill:#7f8b98;opacity:0.43;}.cls-132{fill:#7e8b97;opacity:0.44;}.cls-133{fill:#7d8a96;opacity:0.44;}.cls-134{fill:#7c8995;opacity:0.45;}.cls-135{fill:#7b8895;opacity:0.45;}.cls-136{fill:#7a8794;opacity:0.45;}.cls-137{fill:#798693;opacity:0.46;}.cls-138{fill:#788592;opacity:0.46;}.cls-139{fill:#778491;opacity:0.46;}.cls-140{fill:#768391;opacity:0.47;}.cls-141{fill:#758290;opacity:0.47;}.cls-142{fill:#74818f;opacity:0.47;}.cls-143{fill:#73818e;opacity:0.48;}.cls-144{fill:#72808d;opacity:0.48;}.cls-145{fill:#717f8d;opacity:0.48;}.cls-146{fill:#707e8c;opacity:0.49;}.cls-147{fill:#6f7d8b;opacity:0.49;}.cls-148{fill:#6e7c8a;opacity:0.49;}.cls-149{fill:#6d7b89;opacity:0.5;}.cls-150{fill:#6c7a89;opacity:0.5;}.cls-151{fill:#6b7988;opacity:0.5;}.cls-152{fill:#6a7887;opacity:0.51;}.cls-153{fill:#697886;opacity:0.51;}.cls-154{fill:#687785;opacity:0.51;}.cls-155{fill:#677685;opacity:0.52;}.cls-156{fill:#667584;opacity:0.52;}.cls-157{fill:#657483;opacity:0.52;}.cls-158{fill:#647382;opacity:0.53;}.cls-159{fill:#637281;opacity:0.53;}.cls-160{fill:#627180;opacity:0.53;}.cls-161{fill:#617080;opacity:0.54;}.cls-162{fill:#606f7f;opacity:0.54;}.cls-163{fill:#5f6f7e;opacity:0.54;}.cls-164{fill:#5e6e7d;opacity:0.55;}.cls-165{fill:#5d6d7c;opacity:0.55;}.cls-166{fill:#5c6c7c;opacity:0.55;}.cls-167{fill:#5b6b7b;opacity:0.56;}.cls-168{fill:#5a6a7a;opacity:0.56;}.cls-169{fill:#596979;opacity:0.56;}.cls-170{fill:#586878;opacity:0.57;}.cls-171{fill:#576778;opacity:0.57;}.cls-172{fill:#566677;opacity:0.57;}.cls-173{fill:#556676;opacity:0.58;}.cls-174{fill:#546575;opacity:0.58;}.cls-175{fill:#536474;opacity:0.58;}.cls-176{fill:#526374;opacity:0.59;}.cls-177{fill:#516273;opacity:0.59;}.cls-178{fill:#506172;opacity:0.59;}.cls-179{fill:#4f6071;opacity:0.6;}.cls-180{fill:#4e5f70;opacity:0.6;}.cls-181{fill:#4d5e70;opacity:0.6;}.cls-182{fill:#4c5d6f;opacity:0.61;}.cls-183{fill:#4b5c6e;opacity:0.61;}.cls-184{fill:#4a5c6d;opacity:0.62;}.cls-185{fill:#495b6c;opacity:0.62;}.cls-186{fill:#485a6c;opacity:0.62;}.cls-187{fill:#47596b;opacity:0.63;}.cls-188{fill:#46586a;opacity:0.63;}.cls-189{fill:#455769;opacity:0.63;}.cls-190{fill:#445668;opacity:0.64;}.cls-191{fill:#435568;opacity:0.64;}.cls-192{fill:#425467;opacity:0.64;}.cls-193{fill:#415366;opacity:0.65;}.cls-194{fill:#405365;opacity:0.65;}.cls-195{fill:#3f5264;opacity:0.65;}.cls-196{fill:#3e5163;opacity:0.66;}.cls-197{fill:#3d5063;opacity:0.66;}.cls-198{fill:#3c4f62;opacity:0.66;}.cls-199{fill:#3b4e61;opacity:0.67;}.cls-200{fill:#3a4d60;opacity:0.67;}.cls-201{fill:#394c5f;opacity:0.67;}.cls-202{fill:#384b5f;opacity:0.68;}.cls-203{fill:#374a5e;opacity:0.68;}.cls-204{fill:#364a5d;opacity:0.68;}.cls-205{fill:#35495c;opacity:0.69;}.cls-206{fill:#34485b;opacity:0.69;}.cls-207{fill:#33475b;opacity:0.69;}.cls-208{fill:#32465a;opacity:0.7;}.cls-209{fill:#314559;opacity:0.7;}.cls-210{fill:url(#linear-gradient);}.cls-211{fill:#6ec1df;}.cls-212{fill:#5a6e7f;}.cls-213{fill:#567891;}.cls-214{fill:#282828;}.cls-215{fill:#1c1c1c;}</style><linearGradient id="linear-gradient" x1="6970.53" y1="503.96" x2="6999.97" y2="503.96" gradientTransform="translate(521.11 -6970.53) rotate(90)" gradientUnits="userSpaceOnUse"><stop offset="0" stop-color="#fff"/><stop offset="0.28" stop-color="#fafbfc"/><stop offset="0.6" stop-color="#edeff2"/><stop offset="0.93" stop-color="#d7dbe2"/><stop offset="1" stop-color="#d1d5de"/></linearGradient></defs><g class="cls-1"><g id="Layer_2" data-name="Layer 2"><g id="Layer_1-2" data-name="Layer 1"><g class="cls-2"><ellipse class="cls-3" cx="17.15" cy="19.52" rx="17.15" ry="17.01"/><ellipse class="cls-4" cx="17.15" cy="19.52" rx="17.12" ry="16.98"/><ellipse class="cls-5" cx="17.15" cy="19.51" rx="17.09" ry="16.95"/><ellipse class="cls-6" cx="17.15" cy="19.51" rx="17.05" ry="16.91"/><ellipse class="cls-7" cx="17.15" cy="19.5" rx="17.02" ry="16.88"/><ellipse class="cls-8" cx="17.15" cy="19.5" rx="16.99" ry="16.85"/><ellipse class="cls-9" cx="17.15" cy="19.49" rx="16.96" ry="16.82"/><ellipse class="cls-10" cx="17.15" cy="19.49" rx="16.93" ry="16.79"/><ellipse class="cls-11" cx="17.15" cy="19.49" rx="16.9" ry="16.76"/><ellipse class="cls-12" cx="17.15" cy="19.48" rx="16.86" ry="16.73"/><ellipse class="cls-13" cx="17.15" cy="19.48" rx="16.83" ry="16.69"/><ellipse class="cls-14" cx="17.15" cy="19.47" rx="16.8" ry="16.66"/><ellipse class="cls-15" cx="17.15" cy="19.47" rx="16.77" ry="16.63"/><ellipse class="cls-16" cx="17.15" cy="19.46" rx="16.74" ry="16.6"/><ellipse class="cls-17" cx="17.15" cy="19.46" rx="16.71" ry="16.57"/><ellipse class="cls-18" cx="17.15" cy="19.45" rx="16.67" ry="16.54"/><ellipse class="cls-19" cx="17.15" cy="19.45" rx="16.64" ry="16.51"/><ellipse class="cls-20" cx="17.15" cy="19.44" rx="16.61" ry="16.47"/><ellipse class="cls-21" cx="17.15" cy="19.44" rx="16.58" ry="16.44"/><ellipse class="cls-22" cx="17.15" cy="19.44" rx="16.55" ry="16.41"/><ellipse class="cls-23" cx="17.15" cy="19.43" rx="16.52" ry="16.38"/><ellipse class="cls-24" cx="17.15" cy="19.43" rx="16.48" ry="16.35"/><ellipse class="cls-25" cx="17.15" cy="19.42" rx="16.45" ry="16.32"/><ellipse class="cls-26" cx="17.15" cy="19.42" rx="16.42" ry="16.29"/><ellipse class="cls-27" cx="17.15" cy="19.41" rx="16.39" ry="16.25"/><ellipse class="cls-28" cx="17.15" cy="19.41" rx="16.36" ry="16.22"/><ellipse class="cls-29" cx="17.15" cy="19.4" rx="16.33" ry="16.19"/><ellipse class="cls-30" cx="17.15" cy="19.4" rx="16.29" ry="16.16"/><ellipse class="cls-31" cx="17.15" cy="19.39" rx="16.26" ry="16.13"/><ellipse class="cls-32" cx="17.15" cy="19.39" rx="16.23" ry="16.1"/><ellipse class="cls-33" cx="17.15" cy="19.39" rx="16.2" ry="16.07"/><ellipse class="cls-34" cx="17.15" cy="19.38" rx="16.17" ry="16.03"/><ellipse class="cls-35" cx="17.15" cy="19.38" rx="16.14" ry="16"/><ellipse class="cls-36" cx="17.15" cy="19.37" rx="16.1" ry="15.97"/><ellipse class="cls-37" cx="17.15" cy="19.37" rx="16.07" ry="15.94"/><ellipse class="cls-38" cx="17.15" cy="19.36" rx="16.04" ry="15.91"/><ellipse class="cls-39" cx="17.15" cy="19.36" rx="16.01" ry="15.88"/><ellipse class="cls-40" cx="17.15" cy="19.35" rx="15.98" ry="15.85"/><ellipse class="cls-41" cx="17.15" cy="19.35" rx="15.95" ry="15.81"/><ellipse class="cls-42" cx="17.15" cy="19.34" rx="15.91" ry="15.78"/><ellipse class="cls-43" cx="17.15" cy="19.34" rx="15.88" ry="15.75"/><ellipse class="cls-44" cx="17.15" cy="19.34" rx="15.85" ry="15.72"/><ellipse class="cls-45" cx="17.15" cy="19.33" rx="15.82" ry="15.69"/><ellipse class="cls-46" cx="17.15" cy="19.33" rx="15.79" ry="15.66"/><ellipse class="cls-47" cx="17.15" cy="19.32" rx="15.76" ry="15.63"/><ellipse class="cls-48" cx="17.15" cy="19.32" rx="15.72" ry="15.59"/><ellipse class="cls-49" cx="17.15" cy="19.31" rx="15.69" ry="15.56"/><ellipse class="cls-50" cx="17.15" cy="19.31" rx="15.66" ry="15.53"/><ellipse class="cls-51" cx="17.15" cy="19.3" rx="15.63" ry="15.5"/><ellipse class="cls-52" cx="17.15" cy="19.3" rx="15.6" ry="15.47"/><ellipse class="cls-53" cx="17.15" cy="19.29" rx="15.57" ry="15.44"/><ellipse class="cls-54" cx="17.15" cy="19.29" rx="15.53" ry="15.41"/><ellipse class="cls-55" cx="17.15" cy="19.29" rx="15.5" ry="15.37"/><ellipse class="cls-56" cx="17.15" cy="19.28" rx="15.47" ry="15.34"/><ellipse class="cls-57" cx="17.15" cy="19.28" rx="15.44" ry="15.31"/><ellipse class="cls-58" cx="17.15" cy="19.27" rx="15.41" ry="15.28"/><ellipse class="cls-59" cx="17.15" cy="19.27" rx="15.38" ry="15.25"/><ellipse class="cls-60" cx="17.15" cy="19.26" rx="15.34" ry="15.22"/><ellipse class="cls-61" cx="17.15" cy="19.26" rx="15.31" ry="15.19"/><ellipse class="cls-62" cx="17.15" cy="19.25" rx="15.28" ry="15.15"/><ellipse class="cls-63" cx="17.15" cy="19.25" rx="15.25" ry="15.12"/><ellipse class="cls-64" cx="17.15" cy="19.24" rx="15.22" ry="15.09"/><ellipse class="cls-65" cx="17.15" cy="19.24" rx="15.19" ry="15.06"/><ellipse class="cls-66" cx="17.15" cy="19.24" rx="15.15" ry="15.03"/><ellipse class="cls-67" cx="17.15" cy="19.23" rx="15.12" ry="15"/><ellipse class="cls-68" cx="17.15" cy="19.23" rx="15.09" ry="14.97"/><ellipse class="cls-69" cx="17.15" cy="19.22" rx="15.06" ry="14.93"/><ellipse class="cls-70" cx="17.15" cy="19.22" rx="15.03" ry="14.9"/><ellipse class="cls-71" cx="17.15" cy="19.21" rx="15" ry="14.87"/><ellipse class="cls-72" cx="17.15" cy="19.21" rx="14.96" ry="14.84"/><ellipse class="cls-73" cx="17.15" cy="19.2" rx="14.93" ry="14.81"/><ellipse class="cls-74" cx="17.15" cy="19.2" rx="14.9" ry="14.78"/><ellipse class="cls-75" cx="17.15" cy="19.19" rx="14.87" ry="14.75"/><ellipse class="cls-76" cx="17.15" cy="19.19" rx="14.84" ry="14.71"/><ellipse class="cls-77" cx="17.15" cy="19.19" rx="14.81" ry="14.68"/><ellipse class="cls-78" cx="17.15" cy="19.18" rx="14.77" ry="14.65"/><ellipse class="cls-79" cx="17.15" cy="19.18" rx="14.74" ry="14.62"/><ellipse class="cls-80" cx="17.15" cy="19.17" rx="14.71" ry="14.59"/><ellipse class="cls-81" cx="17.15" cy="19.17" rx="14.68" ry="14.56"/><ellipse class="cls-82" cx="17.15" cy="19.16" rx="14.65" ry="14.53"/><ellipse class="cls-83" cx="17.15" cy="19.16" rx="14.61" ry="14.49"/><ellipse class="cls-84" cx="17.15" cy="19.15" rx="14.58" ry="14.46"/><ellipse class="cls-85" cx="17.15" cy="19.15" rx="14.55" ry="14.43"/><ellipse class="cls-86" cx="17.15" cy="19.14" rx="14.52" ry="14.4"/><ellipse class="cls-87" cx="17.15" cy="19.14" rx="14.49" ry="14.37"/><ellipse class="cls-88" cx="17.15" cy="19.14" rx="14.46" ry="14.34"/><ellipse class="cls-89" cx="17.15" cy="19.13" rx="14.42" ry="14.31"/><ellipse class="cls-90" cx="17.15" cy="19.13" rx="14.39" ry="14.27"/><ellipse class="cls-91" cx="17.15" cy="19.12" rx="14.36" ry="14.24"/><ellipse class="cls-92" cx="17.15" cy="19.12" rx="14.33" ry="14.21"/><ellipse class="cls-93" cx="17.15" cy="19.11" rx="14.3" ry="14.18"/><ellipse class="cls-94" cx="17.15" cy="19.11" rx="14.27" ry="14.15"/><ellipse class="cls-95" cx="17.15" cy="19.1" rx="14.23" ry="14.12"/><ellipse class="cls-96" cx="17.15" cy="19.1" rx="14.2" ry="14.09"/><ellipse class="cls-97" cx="17.15" cy="19.1" rx="14.17" ry="14.05"/><ellipse class="cls-98" cx="17.15" cy="19.09" rx="14.14" ry="14.02"/><ellipse class="cls-99" cx="17.15" cy="19.09" rx="14.11" ry="13.99"/><ellipse class="cls-100" cx="17.15" cy="19.08" rx="14.08" ry="13.96"/><ellipse class="cls-101" cx="17.15" cy="19.08" rx="14.04" ry="13.93"/><ellipse class="cls-102" cx="17.15" cy="19.07" rx="14.01" ry="13.9"/><ellipse class="cls-103" cx="17.15" cy="19.07" rx="13.98" ry="13.87"/><ellipse class="cls-104" cx="17.15" cy="19.06" rx="13.95" ry="13.83"/><ellipse class="cls-105" cx="17.15" cy="19.06" rx="13.92" ry="13.8"/><ellipse class="cls-106" cx="17.15" cy="19.05" rx="13.89" ry="13.77"/><ellipse class="cls-107" cx="17.15" cy="19.05" rx="13.85" ry="13.74"/><ellipse class="cls-108" cx="17.15" cy="19.05" rx="13.82" ry="13.71"/><ellipse class="cls-109" cx="17.15" cy="19.04" rx="13.79" ry="13.68"/><ellipse class="cls-110" cx="17.15" cy="19.04" rx="13.76" ry="13.65"/><ellipse class="cls-111" cx="17.15" cy="19.03" rx="13.73" ry="13.61"/><ellipse class="cls-112" cx="17.15" cy="19.03" rx="13.7" ry="13.58"/><ellipse class="cls-113" cx="17.15" cy="19.02" rx="13.66" ry="13.55"/><ellipse class="cls-114" cx="17.15" cy="19.02" rx="13.63" ry="13.52"/><ellipse class="cls-115" cx="17.15" cy="19.01" rx="13.6" ry="13.49"/><ellipse class="cls-116" cx="17.15" cy="19.01" rx="13.57" ry="13.46"/><ellipse class="cls-117" cx="17.15" cy="19" rx="13.54" ry="13.43"/><ellipse class="cls-118" cx="17.15" cy="19" rx="13.51" ry="13.39"/><ellipse class="cls-119" cx="17.15" cy="19" rx="13.47" ry="13.36"/><ellipse class="cls-120" cx="17.15" cy="18.99" rx="13.44" ry="13.33"/><ellipse class="cls-121" cx="17.15" cy="18.99" rx="13.41" ry="13.3"/><ellipse class="cls-122" cx="17.15" cy="18.98" rx="13.38" ry="13.27"/><ellipse class="cls-123" cx="17.15" cy="18.98" rx="13.35" ry="13.24"/><ellipse class="cls-124" cx="17.15" cy="18.97" rx="13.32" ry="13.21"/><ellipse class="cls-125" cx="17.15" cy="18.97" rx="13.28" ry="13.17"/><ellipse class="cls-126" cx="17.15" cy="18.96" rx="13.25" ry="13.14"/><ellipse class="cls-127" cx="17.15" cy="18.96" rx="13.22" ry="13.11"/><ellipse class="cls-128" cx="17.15" cy="18.95" rx="13.19" ry="13.08"/><ellipse class="cls-129" cx="17.15" cy="18.95" rx="13.16" ry="13.05"/><ellipse class="cls-130" cx="17.15" cy="18.95" rx="13.13" ry="13.02"/><ellipse class="cls-131" cx="17.15" cy="18.94" rx="13.09" ry="12.99"/><ellipse class="cls-132" cx="17.15" cy="18.94" rx="13.06" ry="12.95"/><ellipse class="cls-133" cx="17.15" cy="18.93" rx="13.03" ry="12.92"/><ellipse class="cls-134" cx="17.15" cy="18.93" rx="13" ry="12.89"/><ellipse class="cls-135" cx="17.15" cy="18.92" rx="12.97" ry="12.86"/><ellipse class="cls-136" cx="17.15" cy="18.92" rx="12.94" ry="12.83"/><ellipse class="cls-137" cx="17.15" cy="18.91" rx="12.9" ry="12.8"/><ellipse class="cls-138" cx="17.15" cy="18.91" rx="12.87" ry="12.77"/><ellipse class="cls-139" cx="17.15" cy="18.9" rx="12.84" ry="12.73"/><ellipse class="cls-140" cx="17.15" cy="18.9" rx="12.81" ry="12.7"/><ellipse class="cls-141" cx="17.15" cy="18.9" rx="12.78" ry="12.67"/><ellipse class="cls-142" cx="17.15" cy="18.89" rx="12.75" ry="12.64"/><ellipse class="cls-143" cx="17.15" cy="18.89" rx="12.71" ry="12.61"/><ellipse class="cls-144" cx="17.15" cy="18.88" rx="12.68" ry="12.58"/><ellipse class="cls-145" cx="17.15" cy="18.88" rx="12.65" ry="12.55"/><ellipse class="cls-146" cx="17.15" cy="18.87" rx="12.62" ry="12.51"/><ellipse class="cls-147" cx="17.15" cy="18.87" rx="12.59" ry="12.48"/><ellipse class="cls-148" cx="17.15" cy="18.86" rx="12.56" ry="12.45"/><ellipse class="cls-149" cx="17.15" cy="18.86" rx="12.52" ry="12.42"/><ellipse class="cls-150" cx="17.15" cy="18.85" rx="12.49" ry="12.39"/><ellipse class="cls-151" cx="17.15" cy="18.85" rx="12.46" ry="12.36"/><ellipse class="cls-152" cx="17.15" cy="18.85" rx="12.43" ry="12.33"/><ellipse class="cls-153" cx="17.15" cy="18.84" rx="12.4" ry="12.29"/><ellipse class="cls-154" cx="17.15" cy="18.84" rx="12.37" ry="12.26"/><ellipse class="cls-155" cx="17.15" cy="18.83" rx="12.33" ry="12.23"/><ellipse class="cls-156" cx="17.15" cy="18.83" rx="12.3" ry="12.2"/><ellipse class="cls-157" cx="17.15" cy="18.82" rx="12.27" ry="12.17"/><ellipse class="cls-158" cx="17.15" cy="18.82" rx="12.24" ry="12.14"/><ellipse class="cls-159" cx="17.15" cy="18.81" rx="12.21" ry="12.11"/><ellipse class="cls-160" cx="17.15" cy="18.81" rx="12.18" ry="12.07"/><ellipse class="cls-161" cx="17.15" cy="18.8" rx="12.14" ry="12.04"/><ellipse class="cls-162" cx="17.15" cy="18.8" rx="12.11" ry="12.01"/><ellipse class="cls-163" cx="17.15" cy="18.8" rx="12.08" ry="11.98"/><ellipse class="cls-164" cx="17.15" cy="18.79" rx="12.05" ry="11.95"/><ellipse class="cls-165" cx="17.15" cy="18.79" rx="12.02" ry="11.92"/><ellipse class="cls-166" cx="17.15" cy="18.78" rx="11.98" ry="11.89"/><ellipse class="cls-167" cx="17.15" cy="18.78" rx="11.95" ry="11.85"/><ellipse class="cls-168" cx="17.15" cy="18.77" rx="11.92" ry="11.82"/><ellipse class="cls-169" cx="17.15" cy="18.77" rx="11.89" ry="11.79"/><ellipse class="cls-170" cx="17.15" cy="18.76" rx="11.86" ry="11.76"/><ellipse class="cls-171" cx="17.15" cy="18.76" rx="11.83" ry="11.73"/><ellipse class="cls-172" cx="17.15" cy="18.75" rx="11.79" ry="11.7"/><ellipse class="cls-173" cx="17.15" cy="18.75" rx="11.76" ry="11.67"/><ellipse class="cls-174" cx="17.15" cy="18.75" rx="11.73" ry="11.63"/><ellipse class="cls-175" cx="17.15" cy="18.74" rx="11.7" ry="11.6"/><ellipse class="cls-176" cx="17.15" cy="18.74" rx="11.67" ry="11.57"/><ellipse class="cls-177" cx="17.15" cy="18.73" rx="11.64" ry="11.54"/><ellipse class="cls-178" cx="17.15" cy="18.73" rx="11.6" ry="11.51"/><ellipse class="cls-179" cx="17.15" cy="18.72" rx="11.57" ry="11.48"/><ellipse class="cls-180" cx="17.15" cy="18.72" rx="11.54" ry="11.45"/><ellipse class="cls-181" cx="17.15" cy="18.71" rx="11.51" ry="11.41"/><ellipse class="cls-182" cx="17.15" cy="18.71" rx="11.48" ry="11.38"/><ellipse class="cls-183" cx="17.15" cy="18.7" rx="11.45" ry="11.35"/><ellipse class="cls-184" cx="17.15" cy="18.7" rx="11.41" ry="11.32"/><ellipse class="cls-185" cx="17.15" cy="18.7" rx="11.38" ry="11.29"/><ellipse class="cls-186" cx="17.15" cy="18.69" rx="11.35" ry="11.26"/><ellipse class="cls-187" cx="17.15" cy="18.69" rx="11.32" ry="11.23"/><ellipse class="cls-188" cx="17.15" cy="18.68" rx="11.29" ry="11.19"/><ellipse class="cls-189" cx="17.15" cy="18.68" rx="11.26" ry="11.16"/><ellipse class="cls-190" cx="17.15" cy="18.67" rx="11.22" ry="11.13"/><ellipse class="cls-191" cx="17.15" cy="18.67" rx="11.19" ry="11.1"/><ellipse class="cls-192" cx="17.15" cy="18.66" rx="11.16" ry="11.07"/><ellipse class="cls-193" cx="17.15" cy="18.66" rx="11.13" ry="11.04"/><ellipse class="cls-194" cx="17.15" cy="18.65" rx="11.1" ry="11.01"/><ellipse class="cls-195" cx="17.15" cy="18.65" rx="11.07" ry="10.98"/><ellipse class="cls-196" cx="17.15" cy="18.65" rx="11.03" ry="10.94"/><ellipse class="cls-197" cx="17.15" cy="18.64" rx="11" ry="10.91"/><ellipse class="cls-198" cx="17.15" cy="18.64" rx="10.97" ry="10.88"/><ellipse class="cls-199" cx="17.15" cy="18.63" rx="10.94" ry="10.85"/><ellipse class="cls-200" cx="17.15" cy="18.63" rx="10.91" ry="10.82"/><ellipse class="cls-201" cx="17.15" cy="18.62" rx="10.88" ry="10.79"/><ellipse class="cls-202" cx="17.15" cy="18.62" rx="10.84" ry="10.76"/><ellipse class="cls-203" cx="17.15" cy="18.61" rx="10.81" ry="10.72"/><ellipse class="cls-204" cx="17.15" cy="18.61" rx="10.78" ry="10.69"/><ellipse class="cls-205" cx="17.15" cy="18.6" rx="10.75" ry="10.66"/><ellipse class="cls-206" cx="17.15" cy="18.6" rx="10.72" ry="10.63"/><ellipse class="cls-207" cx="17.15" cy="18.6" rx="10.69" ry="10.6"/><ellipse class="cls-208" cx="17.15" cy="18.59" rx="10.65" ry="10.57"/><ellipse class="cls-209" cx="17.15" cy="18.59" rx="10.62" ry="10.54"/></g><ellipse class="cls-210" cx="17.15" cy="14.72" rx="14.84" ry="14.72"/><path class="cls-211" d="M22,13.53h.09a.7.7,0,0,1,.7.7v1.61a.7.7,0,0,1-.7.7H22a0,0,0,0,1,0,0v-3A0,0,0,0,1,22,13.53Z"/><polygon class="cls-212" points="21.45 6.9 21.45 23.07 21.18 22.9 12.25 17.28 12.25 12.68 21.18 7.07 21.45 6.9"/><polygon class="cls-213" points="21.45 15.09 21.45 23.07 21.18 22.9 12.25 17.28 12.25 15.09 21.45 15.09"/><path class="cls-214" d="M12.25,12.71v4.54H10.87c-.79,0-1.44-.39-1.44-.88V13.59c0-.49.65-.88,1.44-.88Z"/><path class="cls-214" d="M22.23,6.88V23.29c0,.13-.17.24-.38.24h0c-.21,0-.38-.11-.38-.24V6.88c0-.14.17-.24.38-.24h0C22.06,6.64,22.23,6.74,22.23,6.88Z"/><polygon class="cls-211" points="21.45 6.9 21.45 23.07 21.18 22.9 21.18 7.07 21.45 6.9"/><path class="cls-215" d="M12.25,15.09v2.16H10.87c-.79,0-1.44-.39-1.44-.88V15.09Z"/><path class="cls-215" d="M22.23,15.09v8.2c0,.13-.17.24-.38.24h0c-.21,0-.38-.11-.38-.24v-8.2Z"/></g></g></g></svg>