<svg xmlns="http://www.w3.org/2000/svg" viewBox="0 0 138.39 9.37"><defs><style>.cls-1{opacity:0.7;}.cls-2{opacity:0.75;}.cls-3{opacity:0.6;}</style></defs><g id="Layer_2" data-name="Layer 2"><g id="MyRemoteThings_Mobile_App" data-name="MyRemoteThings Mobile App"><g class="cls-1"><path d="M0,.14H3.18l2.29,6.5L7.73.14h3V9.23h-2V2.51h0L6.31,9.23H4.52L2.1,2.51H2.05V9.23H0Z"/><path d="M15.2,5.59,11.84.14h2.53l2,3.56L18.28.14h2.55L17.44,5.56V9.23H15.2Z"/><path class="cls-2" d="M25.24.14h4.18a6.12,6.12,0,0,1,2.69.44,1.54,1.54,0,0,1,.83,1.48V3.65a1.51,1.51,0,0,1-.58,1.26,3.17,3.17,0,0,1-1.54.58l2.7,3.74H30.94L28.51,5.66h-1V9.23H25.24Zm4.15,4.07A2,2,0,0,0,30.47,4a.91.91,0,0,0,.28-.79V2.58a.77.77,0,0,0-.3-.7,2.24,2.24,0,0,0-1.06-.19H27.47V4.21Z"/><path class="cls-2" d="M34.81.14h7.08V1.69H37V3.78h4.38V5.33H37V7.67h5V9.23H34.81Z"/><path class="cls-2" d="M43.54.14h3.18L49,6.64,51.27.14h3V9.23h-2V2.51h0L49.85,9.23H48.06L45.64,2.51h0V9.23H43.54Z"/><path class="cls-2" d="M59,9.27a8.19,8.19,0,0,1-1.36-.34,2.36,2.36,0,0,1-1.18-.82,2.19,2.19,0,0,1-.43-1.38v-4a2.44,2.44,0,0,1,.3-1.21,2.48,2.48,0,0,1,.8-.84A4.39,4.39,0,0,1,58.23.27,6.18,6.18,0,0,1,59.4,0c.34,0,.69,0,1.06,0s.82,0,1.15.05a7.39,7.39,0,0,1,1.08.2,4.34,4.34,0,0,1,1.14.48,2.41,2.41,0,0,1,.74.78,2.37,2.37,0,0,1,.32,1.25v4A2.15,2.15,0,0,1,64.48,8a2.46,2.46,0,0,1-1.13.82,7.79,7.79,0,0,1-2.89.51A10.31,10.31,0,0,1,59,9.27Zm2.24-1.49A4.21,4.21,0,0,0,62,7.64a.91.91,0,0,0,.52-.33.89.89,0,0,0,.18-.58v-4a.93.93,0,0,0-.53-.91,3.75,3.75,0,0,0-1.64-.28,3.79,3.79,0,0,0-1.65.27,1,1,0,0,0-.53.92v4a.85.85,0,0,0,.19.58.93.93,0,0,0,.54.33,4.21,4.21,0,0,0,.67.14c.21,0,.47,0,.79,0S61.07,7.8,61.28,7.78Z"/><path class="cls-2" d="M68.84,1.69H66V.14h8V1.69H71.07V9.23H68.84Z"/><path class="cls-2" d="M75.21.14h7.08V1.69H77.44V3.78h4.38V5.33H77.44V7.67h5V9.23H75.21Z"/><path class="cls-3" d="M89.38,1.69H86.52V.14h7.94V1.69H91.62V9.23H89.38Z"/><path class="cls-3" d="M95.75.14H98V3.78h4V.14h2.23V9.23h-2.23V5.33H98v3.9H95.75Z"/><path class="cls-3" d="M106.18.14h2.23V9.23h-2.23Z"/><path class="cls-3" d="M110.41.14h2.27l4.49,6.2V.14h2V9.23H116.9l-4.5-6.3v6.3h-2Z"/><path class="cls-3" d="M124.17,9.3A8.35,8.35,0,0,1,123,9.06a3.25,3.25,0,0,1-1.06-.46,2.24,2.24,0,0,1-.68-.75A2.37,2.37,0,0,1,121,6.73V3a2.69,2.69,0,0,1,.28-1.24A2.32,2.32,0,0,1,122,.84a4.67,4.67,0,0,1,1.1-.5,5.75,5.75,0,0,1,1.25-.28A11.12,11.12,0,0,1,125.62,0a24.15,24.15,0,0,1,3.78.29V2a16.61,16.61,0,0,0-3.78-.4c-1.61,0-2.42.46-2.42,1.38V6.58a1,1,0,0,0,.65,1,5.17,5.17,0,0,0,2,.28,5.88,5.88,0,0,0,1.5-.21V5.49H125.8V4.06h3.66V8.78a10,10,0,0,1-1.83.42,14,14,0,0,1-2,.17C125.06,9.37,124.58,9.34,124.17,9.3Z"/><path class="cls-3" d="M131,9.11V7.45a27.75,27.75,0,0,0,3.32.36c1.25,0,1.87-.31,1.87-.94V6.29a.87.87,0,0,0-.27-.69,1.43,1.43,0,0,0-.95-.24h-1.09c-2,0-3.06-.79-3.06-2.38V2.31a1.87,1.87,0,0,1,1-1.75A7.06,7.06,0,0,1,135,0q1.15,0,2.91.18V1.81c-1.44-.17-2.43-.26-3-.26a3.85,3.85,0,0,0-1.51.19.64.64,0,0,0-.42.61V3c0,.47.41.71,1.23.71h1.12a3.68,3.68,0,0,1,2.3.57A2.12,2.12,0,0,1,138.39,6v.61a2.2,2.2,0,0,1-1.19,2.19,4.22,4.22,0,0,1-1.27.42,9.83,9.83,0,0,1-1.66.12A26.53,26.53,0,0,1,131,9.11Z"/></g></g></g></svg>