<svg xmlns="http://www.w3.org/2000/svg" xmlns:xlink="http://www.w3.org/1999/xlink" viewBox="0 0 50.38 29.49"><defs><style>.cls-1{isolation:isolate;}.cls-2{fill:url(#linear-gradient);}.cls-3{fill:url(#linear-gradient-2);}.cls-4{fill:url(#linear-gradient-3);}.cls-5{fill:url(#linear-gradient-4);}.cls-6{fill:#9d9d9d;}.cls-7{fill:url(#linear-gradient-5);}.cls-8{fill:url(#linear-gradient-6);}.cls-9{fill:#6ec1df;}.cls-10{fill:#175e7c;}.cls-11{fill:#18759a;}.cls-12{fill:#0e4054;}.cls-13{mix-blend-mode:multiply;fill:url(#linear-gradient-7);}.cls-14{fill:url(#linear-gradient-8);}.cls-15{fill:url(#linear-gradient-9);}</style><linearGradient id="linear-gradient" x1="-52.7" y1="-81.67" x2="-42.21" y2="-81.67" gradientTransform="matrix(0.95, -0.18, 0.18, 0.98, 100.78, 96.42)" gradientUnits="userSpaceOnUse"><stop offset="0" stop-color="#b2b2b2"/><stop offset="1" stop-color="#d8d8d8"/></linearGradient><linearGradient id="linear-gradient-2" x1="-42.22" y1="-82.53" x2="-35.94" y2="-82.53" xlink:href="#linear-gradient"/><linearGradient id="linear-gradient-3" x1="-82.91" y1="-102.61" x2="-80.79" y2="-104.31" gradientTransform="matrix(0.95, -0.18, 0.18, 0.98, 100.78, 96.42)" gradientUnits="userSpaceOnUse"><stop offset="0" stop-color="#787979"/><stop offset="1" stop-color="#505150"/></linearGradient><linearGradient id="linear-gradient-4" x1="-61.47" y1="-86.94" x2="-61.47" y2="-93.14" xlink:href="#linear-gradient"/><linearGradient id="linear-gradient-5" x1="-73.89" y1="-100.63" x2="-76.93" y2="-94.02" gradientTransform="matrix(0.97, 0, 0, 1, 84.62, 111.31)" xlink:href="#linear-gradient"/><linearGradient id="linear-gradient-6" x1="-79.19" y1="-96.33" x2="-72.54" y2="-96.33" gradientTransform="matrix(0.97, 0, 0, 1, 84.61, 111.31)" gradientUnits="userSpaceOnUse"><stop offset="0" stop-color="#1b97c8"/><stop offset="1" stop-color="#4fafd5"/></linearGradient><linearGradient id="linear-gradient-7" x1="-75.14" y1="-101.15" x2="-78.22" y2="-94.48" xlink:href="#linear-gradient"/><linearGradient id="linear-gradient-8" x1="-55.82" y1="-84.77" x2="-55.82" y2="-81.24" xlink:href="#linear-gradient"/><linearGradient id="linear-gradient-9" x1="-65.79" y1="-99" x2="-65.79" y2="-106.91" xlink:href="#linear-gradient"/></defs><g class="cls-1"><g id="Layer_2" data-name="Layer 2"><g id="Layer_1-2" data-name="Layer 1"><polygon class="cls-2" points="46.11 25.56 36.1 27.42 35.38 23.52 45.39 21.66 46.11 25.56"/><path class="cls-3" d="M50.31,28.67h0l.07-13.57s-5.4,4.38-5,6.32l.81,4.39A3.57,3.57,0,0,0,50.31,28.67Z"/><path class="cls-4" d="M.67,5.8C.23,5.88.06,6,0,6.52a7.73,7.73,0,0,0,2.68,4.94A2.56,2.56,0,0,0,5,12.27l3.44-.64L8.24,9.34S2.83,5.4.67,5.8Z"/><path class="cls-5" d="M12.74,24.68l23.4-4.35c1.4-.26,4.2-3.88,1.71-12.81-3.94.73-24.44,2.56-24.44,2.56Z"/><path class="cls-6" d="M15.37,12.49c.26.17,1.56.95,2.15,1.35s.88.59,1.43.49L37.16,11a1.41,1.41,0,0,0,1.2-1.28c-.14-.68-.31-1.4-.52-2.15-3.94.73-24.44,2.56-24.44,2.56l-.11,2.44,1-.19A1.58,1.58,0,0,1,15.37,12.49Z"/><ellipse class="cls-7" cx="10.99" cy="15.17" rx="4.11" ry="9.67" transform="translate(-2.56 2.24) rotate(-10.41)"/><ellipse class="cls-8" cx="10.99" cy="15.17" rx="3.23" ry="8.08" transform="translate(-2.56 2.24) rotate(-10.41)"/><ellipse class="cls-9" cx="10.99" cy="15.17" rx="2.58" ry="6.02" transform="translate(-2.56 2.24) rotate(-10.41)"/><ellipse class="cls-10" cx="10.99" cy="15.17" rx="1.85" ry="4.84" transform="translate(-2.56 2.24) rotate(-10.41)"/><ellipse class="cls-11" cx="10.99" cy="15.17" rx="1.58" ry="4.14" transform="translate(-2.56 2.24) rotate(-10.41)"/><ellipse class="cls-9" cx="10.99" cy="15.17" rx="1.19" ry="3.11" transform="translate(-2.56 2.24) rotate(-10.41)"/><ellipse class="cls-12" cx="10.99" cy="15.17" rx="0.93" ry="2.43" transform="translate(-2.56 2.24) rotate(-10.41)"/><ellipse class="cls-10" cx="10.99" cy="15.17" rx="0.72" ry="1.89" transform="translate(-2.56 2.24) rotate(-10.41)"/><path class="cls-13" d="M9.24,5.66C7.5,6,6.5,8.83,6.59,12.56a64.21,64.21,0,0,0,8-.21C13.36,8.18,11.17,5.3,9.24,5.66Z"/><path class="cls-14" d="M32.35,29.45l2-.37A2,2,0,0,0,36,26.72l-1.13-6.14-6,1.11L30,27.83A2,2,0,0,0,32.35,29.45Z"/><path class="cls-6" d="M35.17,22.26l-.31-1.68-6,1.11.35,1.93A11.68,11.68,0,0,1,35.17,22.26Z"/><path class="cls-15" d="M.52,5.83,31.75,0c1.65-.3,5,1.62,6.11,5.52.41,1.88.42,3.41-1,3.68L18.64,12.61c-.55.1-.84-.1-1.43-.49s-1.89-1.18-2.14-1.35A1.56,1.56,0,0,0,14,10.61l-3.68.68a1.07,1.07,0,0,1-1.08-.12C8.68,10.81,2.47,5.64.52,5.83Z"/></g></g></g></svg>