<svg xmlns="http://www.w3.org/2000/svg" viewBox="0 0 82.64 36.48"><defs><style>.cls-1{fill:#175e7c;}.cls-2{fill:#1fb9dd;}</style></defs><g id="Layer_2" data-name="Layer 2"><g id="Layer_1-2" data-name="Layer 1"><path class="cls-1" d="M1.14,20.48H12.43a48.88,48.88,0,0,1,7.37.43,8.16,8.16,0,0,1,4,1.49A3.6,3.6,0,0,1,25,25.33v6.51a3.5,3.5,0,0,1-1.18,2.83A8,8,0,0,1,20,36.07a53.32,53.32,0,0,1-7.49.41H1.14Zm11,13.26a38.68,38.68,0,0,0,3.94-.14,4.35,4.35,0,0,0,1.93-.53,1.38,1.38,0,0,0,.59-1.23V25.26c0-.76-.5-1.29-1.49-1.59a18.07,18.07,0,0,0-4.77-.46H7.52V33.74Z"/><path class="cls-1" d="M28.14,20.48h6.47l7.11,12.79h.17L49,20.48h6.3l-9.82,16H37.67Z"/><path class="cls-1" d="M59,20.48H70.94a27.51,27.51,0,0,1,7.69.77c1.58.52,2.37,1.39,2.37,2.6v2.82a2.44,2.44,0,0,1-1.66,2.2,12.23,12.23,0,0,1-4.39,1l7.69,6.59H75.27l-7-6.29H65.37v6.29H59Zm11.87,7.17a8.68,8.68,0,0,0,3.06-.36,1.36,1.36,0,0,0,.82-1.39V24.77a1.22,1.22,0,0,0-.88-1.22,9.13,9.13,0,0,0-3-.34H65.37v4.44Z"/><path class="cls-2" d="M0,.21H3.06l6.09,9.3V.21h2.7V13.84H8.78L2.69,4.39v9.45H0Z"/><path class="cls-2" d="M15,.21h9.59V2.54H18V5.67H23.9V8H18v3.51h6.77v2.33H15Z"/><path class="cls-2" d="M27.12,10.1V.21h3V10.1a1.37,1.37,0,0,0,.55,1.27,3.81,3.81,0,0,0,1.91.35,3.66,3.66,0,0,0,1.87-.35A1.41,1.41,0,0,0,35,10.1V.21h3V10.1c0,2.64-1.83,4-5.47,4S27.12,12.74,27.12,10.1Z"/><path class="cls-2" d="M41.1.21h5.66A7.49,7.49,0,0,1,50.4.87a2.37,2.37,0,0,1,1.13,2.22V5.48a2.33,2.33,0,0,1-.79,1.88,3.85,3.85,0,0,1-2.08.87l3.64,5.61H48.81L45.52,8.49h-1.4v5.35h-3Zm5.62,6.11A2.54,2.54,0,0,0,48.18,6a1.5,1.5,0,0,0,.38-1.19v-1a1.19,1.19,0,0,0-.41-1,2.77,2.77,0,0,0-1.43-.28h-2.6V6.32Z"/><path class="cls-2" d="M58.19,13.9a9,9,0,0,1-1.83-.5,3.17,3.17,0,0,1-1.61-1.23,3.55,3.55,0,0,1-.58-2.07v-6a3.83,3.83,0,0,1,.41-1.81,3.52,3.52,0,0,1,1.08-1.26A5.59,5.59,0,0,1,57.09.4,7.34,7.34,0,0,1,58.68.06Q59.36,0,60.12,0a14.09,14.09,0,0,1,1.55.07,8.63,8.63,0,0,1,1.47.31,5.45,5.45,0,0,1,1.53.71,3.28,3.28,0,0,1,1,1.18,3.77,3.77,0,0,1,.43,1.87v6A3.3,3.3,0,0,1,64,13.3a9.81,9.81,0,0,1-3.91.75A11.54,11.54,0,0,1,58.19,13.9Zm3-2.23a5.23,5.23,0,0,0,.9-.2,1.29,1.29,0,0,0,.71-.5,1.49,1.49,0,0,0,.24-.87v-6a1.46,1.46,0,0,0-.71-1.38,6.34,6.34,0,0,0-4.46,0,1.46,1.46,0,0,0-.72,1.39v6a1.42,1.42,0,0,0,.25.87,1.37,1.37,0,0,0,.74.5,5.23,5.23,0,0,0,.9.2,10.6,10.6,0,0,0,1.08.05A10.53,10.53,0,0,0,61.23,11.67Z"/><path class="cls-2" d="M68.94.21H72l6.09,9.3V.21h2.69V13.84H77.72L71.63,4.39v9.45H68.94Z"/></g></g></svg>