<svg xmlns="http://www.w3.org/2000/svg" viewBox="0 0 150 23"><defs><style>.cls-1,.cls-2{opacity:0.6;fill:#363636;}.cls-1{font-size:9.44px;font-family:Play-Regular, Play;}.cls-2{font-size:12.16px;font-family:Play-Bold, Play;font-weight:700;}.cls-3{fill:#ea1965;}.cls-3,.cls-4,.cls-5,.cls-6,.cls-7,.cls-8{isolation:isolate;}.cls-4{fill:#ef4438;}.cls-5{fill:#2b317b;}.cls-6{fill:#458fcd;}.cls-7{fill:#f5ee39;}.cls-8{fill:#fec112;}.cls-9{fill:#bbb;}</style></defs><g id="Layer_2" data-name="Layer 2"><g id="Layer_1-2" data-name="Layer 1"><text class="cls-1" transform="translate(0 14.36) scale(1.02 1)">Powered by</text><text class="cls-2" transform="translate(80.57 15.16) scale(1.06 1)">BOODSKAP</text><path class="cls-3" d="M63.58,17.38a32.21,32.21,0,0,0-3.31-2.61V6.64l3.31,1.74Z"/><polygon class="cls-4" points="68.07 2.55 71.67 4.14 63.58 8.38 60.27 6.64 68.07 2.55"/><path class="cls-5" d="M55.36,4.06l3.32,1.73v7.84c-1.22-.82-2.35-1.55-3.32-2.13Z"/><path class="cls-6" d="M63.08,0c1,.57,2.13,1.15,3.33,1.74L58.68,5.79,55.36,4.06Z"/><path class="cls-7" d="M68.52,11V23a16.22,16.22,0,0,0-3.31-4.15V9.23Z"/><path class="cls-8" d="M73.53,4.85a30.52,30.52,0,0,0,4.26,1.24L68.52,11,65.21,9.23Z"/><polygon class="cls-9" points="69.51 18.83 76.28 15.27 76.28 8.2 69.51 11.78 69.51 18.83"/></g></g></svg>