<svg xmlns="http://www.w3.org/2000/svg" viewBox="0 0 212.15 33"><defs><style>.cls-1{opacity:0.6;}.cls-2{fill:#363636;}.cls-3{fill:#ea1965;}.cls-3,.cls-4,.cls-5,.cls-6,.cls-7,.cls-8{isolation:isolate;}.cls-4{fill:#ef4438;}.cls-5{fill:#2b317b;}.cls-6{fill:#458fcd;}.cls-7{fill:#f5ee39;}.cls-8{fill:#fec112;}.cls-9{fill:#bbb;}</style></defs><g id="Layer_2" data-name="Layer 2"><g id="Layer_1-2" data-name="Layer 1"><g class="cls-1"><path class="cls-2" d="M0,11.82H2.92c.41,0,.75,0,1,0a6.63,6.63,0,0,1,.81.12,1.85,1.85,0,0,1,.71.29,1.53,1.53,0,0,1,.46.51,1.55,1.55,0,0,1,.18.78v1.83A1.68,1.68,0,0,1,5.22,17a5.4,5.4,0,0,1-2.55.48H1.34v3.17H0Zm2.85,4.79a2.72,2.72,0,0,0,1.4-.31,1.07,1.07,0,0,0,.52-1V13.72a.94.94,0,0,0-.19-.6A1.09,1.09,0,0,0,4,12.78a4.32,4.32,0,0,0-.57-.1,5.22,5.22,0,0,0-.62,0H1.32v4Z"/><path class="cls-2" d="M9.28,20.68a3.33,3.33,0,0,1-.89-.26,1.33,1.33,0,0,1-.66-.66,3,3,0,0,1-.2-1.22V16.26a3.5,3.5,0,0,1,.15-1.07,1.79,1.79,0,0,1,.4-.71,1.2,1.2,0,0,1,.62-.36A3.64,3.64,0,0,1,9.56,14c.34,0,.68,0,1,0s.84,0,1.08,0a5.06,5.06,0,0,1,.78.15,1.49,1.49,0,0,1,.66.36,1.89,1.89,0,0,1,.4.71,3.59,3.59,0,0,1,.15,1.09v2.28a2.29,2.29,0,0,1-.54,1.68,1.44,1.44,0,0,1-.63.33,4.13,4.13,0,0,1-.85.17l-1.05,0A10.56,10.56,0,0,1,9.28,20.68Zm2.16-.76a1.65,1.65,0,0,0,.51-.15.65.65,0,0,0,.35-.36,1.89,1.89,0,0,0,.1-.7V16.06a2,2,0,0,0-.15-.89.76.76,0,0,0-.51-.36,5.29,5.29,0,0,0-1.14-.09,5.23,5.23,0,0,0-1.14.09.8.8,0,0,0-.52.36,2,2,0,0,0-.15.89v2.65a1.86,1.86,0,0,0,.11.7.59.59,0,0,0,.35.36,1.5,1.5,0,0,0,.51.15,8.14,8.14,0,0,0,.84,0Q11.17,20,11.44,19.92Z"/><path class="cls-2" d="M14.69,14.06h1.36l1.63,5.38h.08l1.57-5.38h1.4l1.62,5.38h.09L24,14.06h1.26l-2.19,6.55H21.61L20,15.31l-1.59,5.3H16.94Z"/><path class="cls-2" d="M26.27,18.74V16.15A2,2,0,0,1,27,14.44a3.82,3.82,0,0,1,2.26-.52,3.53,3.53,0,0,1,2.12.5A2,2,0,0,1,32,16.15V17.6H27.52v1a1.07,1.07,0,0,0,.48,1,3,3,0,0,0,1.49.29,9.25,9.25,0,0,0,2.25-.32v.93a11.63,11.63,0,0,1-2.41.27C27.29,20.74,26.27,20.08,26.27,18.74Zm4.49-1.94v-1a.87.87,0,0,0-.37-.82,2.49,2.49,0,0,0-1.24-.23,2.54,2.54,0,0,0-1.24.23.86.86,0,0,0-.39.82v1Z"/><path class="cls-2" d="M33.89,14.06h1.17v1.07a.83.83,0,0,1,.27-.59,2,2,0,0,1,.71-.45,2.29,2.29,0,0,1,.84-.17h.6v1h-.69a2.68,2.68,0,0,0-1.27.23.84.84,0,0,0-.39.8v4.62H33.89Z"/><path class="cls-2" d="M38.48,18.74V16.15a2,2,0,0,1,.69-1.71,3.82,3.82,0,0,1,2.26-.52,3.53,3.53,0,0,1,2.12.5,2,2,0,0,1,.66,1.73V17.6H39.73v1a1.07,1.07,0,0,0,.48,1,3,3,0,0,0,1.49.29A9.32,9.32,0,0,0,44,19.54v.93a11.63,11.63,0,0,1-2.41.27C39.5,20.74,38.48,20.08,38.48,18.74ZM43,16.8v-1A.87.87,0,0,0,42.6,15a2.49,2.49,0,0,0-1.24-.23,2.54,2.54,0,0,0-1.24.23.86.86,0,0,0-.39.82v1Z"/><path class="cls-2" d="M46.92,20.55a1.46,1.46,0,0,1-.82-.65,2.5,2.5,0,0,1-.25-1.24V15.78a1.62,1.62,0,0,1,.63-1.43,3.73,3.73,0,0,1,2.07-.43,4.48,4.48,0,0,1,1.5.22c.41.14.63.35.64.62h0l0-1.67v-2h1.24v9.48H50.71v-.77c0,.24-.19.45-.59.62a3.84,3.84,0,0,1-1.64.28A5,5,0,0,1,46.92,20.55Zm3.31-.88a.79.79,0,0,0,.46-.78V15.65c0-.58-.61-.88-1.84-.88a3.85,3.85,0,0,0-1.43.17c-.23.1-.34.34-.34.71v3.24a.82.82,0,0,0,.38.78,2.53,2.53,0,0,0,1.28.23A3.41,3.41,0,0,0,50.23,19.67Z"/><path class="cls-2" d="M58.92,20.67a3.39,3.39,0,0,1-.89-.28c-.6-.28-.89-.92-.89-1.92V11.13h1.24v2.74c0,.23,0,.49,0,.78,0-.21.24-.38.58-.53a4.53,4.53,0,0,1,1.52-.2c1.83,0,2.75.62,2.75,1.86v2.69a2.57,2.57,0,0,1-.17,1,1.65,1.65,0,0,1-1.13,1.05,3.85,3.85,0,0,1-.86.17,8.46,8.46,0,0,1-.94,0A7.66,7.66,0,0,1,58.92,20.67Zm2.32-.83a.83.83,0,0,0,.54-.37,1.59,1.59,0,0,0,.17-.82V16.07a1.66,1.66,0,0,0-.17-.83.79.79,0,0,0-.54-.36,5.23,5.23,0,0,0-1.11-.09,3.65,3.65,0,0,0-1.05.11.88.88,0,0,0-.54.38,1.58,1.58,0,0,0-.16.79v2.58a1.73,1.73,0,0,0,.15.82.84.84,0,0,0,.53.37,4.2,4.2,0,0,0,1.08.11A4.38,4.38,0,0,0,61.24,19.84Z"/><path class="cls-2" d="M66.7,20.7l-2.58-6.64h1.35l1.86,5.34h0L69,14.06H70.3L67,23.43h-1.3Z"/></g><g class="cls-1"><path class="cls-2" d="M115.1,10.43h4.84a11.16,11.16,0,0,1,2.64.24,2.27,2.27,0,0,1,1.31.75,2.33,2.33,0,0,1,.39,1.44v1.39a1.25,1.25,0,0,1-.4.89,2.09,2.09,0,0,1-.92.58v.09a2.21,2.21,0,0,1,1.27.56,1.45,1.45,0,0,1,.58,1.11v1.75a2,2,0,0,1-1.16,1.95,8.46,8.46,0,0,1-3.58.58h-5ZM119.94,15a3.56,3.56,0,0,0,1-.11.7.7,0,0,0,.45-.34,1.5,1.5,0,0,0,.12-.68v-.56a1.31,1.31,0,0,0-.11-.6.64.64,0,0,0-.45-.29,4.68,4.68,0,0,0-1.08-.09H118V15Zm.07,4.78a3.51,3.51,0,0,0,1.49-.23.75.75,0,0,0,.44-.73V18a1.05,1.05,0,0,0-.34-.89,2.07,2.07,0,0,0-1.2-.26H118v3Z"/><path class="cls-2" d="M130.34,21.81a10.09,10.09,0,0,1-1.73-.42,3.1,3.1,0,0,1-1.53-1,2.7,2.7,0,0,1-.55-1.72V13.7a2.89,2.89,0,0,1,.39-1.5,3,3,0,0,1,1-1,5.57,5.57,0,0,1,1.36-.56,8.4,8.4,0,0,1,1.51-.28c.43,0,.89-.05,1.36-.05s1.06,0,1.48.06a11.31,11.31,0,0,1,1.4.25,5.81,5.81,0,0,1,1.45.6,2.84,2.84,0,0,1,1.36,2.53v4.95a2.56,2.56,0,0,1-.52,1.62,3.13,3.13,0,0,1-1.45,1,10.37,10.37,0,0,1-3.72.63A13,13,0,0,1,130.34,21.81ZM133.23,20a4.67,4.67,0,0,0,.86-.17,1.2,1.2,0,0,0,.67-.41,1.13,1.13,0,0,0,.23-.72v-5a1.17,1.17,0,0,0-.68-1.14,4.92,4.92,0,0,0-2.12-.34,5.08,5.08,0,0,0-2.11.33,1.16,1.16,0,0,0-.68,1.15v5a1.08,1.08,0,0,0,.24.72,1.22,1.22,0,0,0,.69.41,4.67,4.67,0,0,0,.86.17,10,10,0,0,0,1,0A9.7,9.7,0,0,0,133.23,20Z"/><path class="cls-2" d="M143.74,21.81a10,10,0,0,1-1.74-.42,3.1,3.1,0,0,1-1.53-1,2.76,2.76,0,0,1-.55-1.72V13.7a2.81,2.81,0,0,1,.4-1.5,2.94,2.94,0,0,1,1-1,5.57,5.57,0,0,1,1.36-.56,8.24,8.24,0,0,1,1.51-.28c.43,0,.88-.05,1.36-.05s1.06,0,1.47.06a10.69,10.69,0,0,1,1.4.25,5.74,5.74,0,0,1,1.46.6,2.76,2.76,0,0,1,.95,1,2.88,2.88,0,0,1,.41,1.56v4.95a2.56,2.56,0,0,1-.53,1.62,3.15,3.15,0,0,1-1.44,1,10.4,10.4,0,0,1-3.72.63A13,13,0,0,1,143.74,21.81ZM146.63,20a4.67,4.67,0,0,0,.86-.17,1.24,1.24,0,0,0,.67-.41,1.13,1.13,0,0,0,.23-.72v-5a1.17,1.17,0,0,0-.68-1.14,5,5,0,0,0-2.12-.34,5.14,5.14,0,0,0-2.12.33,1.17,1.17,0,0,0-.68,1.15v5a1.08,1.08,0,0,0,.24.72,1.25,1.25,0,0,0,.7.41,4.67,4.67,0,0,0,.86.17,9.7,9.7,0,0,0,1,0A10,10,0,0,0,146.63,20Z"/><path class="cls-2" d="M153.58,10.43h5.08a14.37,14.37,0,0,1,3.31.31,3.06,3.06,0,0,1,1.78,1,3.4,3.4,0,0,1,.57,2.08v4.61a3.27,3.27,0,0,1-.53,2,3,3,0,0,1-1.75,1,15.43,15.43,0,0,1-3.37.29h-5.09Zm5,9.39a11.26,11.26,0,0,0,1.78-.1,1.53,1.53,0,0,0,.87-.37,1.27,1.27,0,0,0,.26-.87V13.82a1.15,1.15,0,0,0-.67-1.13,5.35,5.35,0,0,0-2.14-.32h-2.19v7.45Z"/><path class="cls-2" d="M166.27,21.62V19.54a36.53,36.53,0,0,0,4.27.45c1.6,0,2.39-.39,2.39-1.17v-.73a1,1,0,0,0-.34-.85,1.85,1.85,0,0,0-1.22-.3H170c-2.62,0-3.94-1-3.94-3v-.83A2.31,2.31,0,0,1,167.34,11a9.15,9.15,0,0,1,4.14-.7c1,0,2.23.08,3.74.23v2c-1.86-.21-3.13-.31-3.83-.31a5.53,5.53,0,0,0-1.95.22.81.81,0,0,0-.54.77V14c0,.6.53.89,1.59.89h1.43a4.82,4.82,0,0,1,3,.72,2.56,2.56,0,0,1,.92,2.18v.75a2.73,2.73,0,0,1-1.52,2.74,6,6,0,0,1-1.63.51,13.23,13.23,0,0,1-2.15.15A37.15,37.15,0,0,1,166.27,21.62Z"/><path class="cls-2" d="M177.79,10.43h2.87V21.76h-2.87Zm3,5.32,4.47-5.32h3.37l-4.53,5.27,5,6.06h-3.49Z"/><path class="cls-2" d="M193.51,10.43H197l4.31,11.33H198.4l-1.06-3H193l-1,3h-2.84Zm3.2,6.53L195.2,12.7h-.07L193.62,17Z"/><path class="cls-2" d="M202.63,10.43h4.79a13.43,13.43,0,0,1,2.77.23,2.62,2.62,0,0,1,1.49.79,2.44,2.44,0,0,1,.47,1.58v2.15a2.69,2.69,0,0,1-.51,1.74,2.79,2.79,0,0,1-1.6.89,12.89,12.89,0,0,1-2.95.26h-1.58v3.69h-2.88Zm4.7,5.78a3.67,3.67,0,0,0,1.58-.25.91.91,0,0,0,.46-.87V13.28a.72.72,0,0,0-.44-.74,5.25,5.25,0,0,0-1.64-.17h-1.78v3.84Z"/></g><path class="cls-3" d="M89.57,24.93a51.7,51.7,0,0,0-4.72-3.74V9.53L89.57,12Z"/><polygon class="cls-4" points="95.97 3.66 101.11 5.93 89.58 12.02 84.85 9.53 95.97 3.66"/><path class="cls-5" d="M77.84,5.83l4.74,2.48V19.56c-1.73-1.17-3.35-2.23-4.73-3Z"/><path class="cls-6" d="M88.86,0c1.43.81,3,1.65,4.75,2.5l-11,5.81L77.84,5.83Z"/><path class="cls-7" d="M96.62,15.72V33a23.34,23.34,0,0,0-4.72-6V13.24Z"/><path class="cls-8" d="M103.77,7a43.72,43.72,0,0,0,6.07,1.78l-13.22,7L91.9,13.24Z"/><polygon class="cls-9" points="98.03 27.02 107.69 21.91 107.69 11.77 98.03 16.9 98.03 27.02"/></g></g></svg>